# xmcd
#
# Track frame offsets:
# 150
# 21977
# 35734
# 52120
# 66703
# 81707
# 96982
# 122005
# 139547
# 159749
# 171259
# 187449
#
# Disc length: 2714 seconds
#
#
# Revision: 1
# Processed by: cddbd v1.5.2PL0 Copyright (c) Steve Scherf et al.
# Submitted via: FreeRIP 2.95 
#
DISCID=c10a980c
DTITLE=Tommy Brandt - No Turning Back
DYEAR=2002
DGENRE=Gospel
TTITLE0=Real Life
TTITLE1=No Turning Back
TTITLE2=Two People in Love
TTITLE3=Till You Start Walking
TTITLE4=For You I'll Stand
TTITLE5=Just Three Nails
TTITLE6=Old School
TTITLE7=The Lighthouse
TTITLE8=Working To Be One
TTITLE9=Get Ready, Get Set, Let's Go
TTITLE10=Forever Yours After Today
TTITLE11=Step Out Of The Boat
EXTD=
EXTT0=
EXTT1=
EXTT2=
EXTT3=
EXTT4=
EXTT5=
EXTT6=
EXTT7=
EXTT8=
EXTT9=
EXTT10=
EXTT11=
PLAYORDER=
